<svg xmlns="http://www.w3.org/2000/svg">
  <!-- about us -->
  <symbol id="flag" viewBox="0 0 24 28">
    <path d="M23.113 4.305a.82.82 0 0 0-.598-.252c-.114 0-.355.094-.723.28-.367.185-.757.392-1.168.623-.411.23-.898.438-1.46.624-.562.185-1.082.28-1.56.28-.442 0-.832-.085-1.168-.253-1.114-.522-2.084-.912-2.907-1.169a8.879 8.879 0 0 0-2.655-.385c-1.636 0-3.5.532-5.589 1.594-.431.215-.74.381-.94.503l-.199-1.455a2.11 2.11 0 0 0 .739-1.598 2.124 2.124 0 1 0-4.25 0c0 .766.41 1.431 1.016 1.805l2.87 21.045A1.25 1.25 0 0 0 7 25.61L5.845 17.15c2.093-1.038 3.904-1.562 5.426-1.562.647 0 1.277.097 1.892.292.615.195 1.127.407 1.534.637.407.23.887.443 1.44.637.553.195 1.1.292 1.639.292 1.363 0 2.995-.513 4.898-1.54.239-.124.414-.246.524-.365.111-.12.166-.29.166-.51V4.901a.82.82 0 0 0-.25-.597Z" fill="#F0145A"/>
  </symbol>
  
  <!-- about us -->
  <symbol id="suitcase" viewBox="0 0 32 32">
    <path d="M17.232 18.332v-.558a1.232 1.232 0 1 0-2.463 0v.558a1.232 1.232 0 1 0 2.463 0Z" fill="#F0145A"/>
    <path d="M18.077 19.014A2.177 2.177 0 0 1 16 20.564a2.177 2.177 0 0 1-2.076-1.55H5.439a3.47 3.47 0 0 1-1.496-.34v5.633c0 1.1.9 2 2 2h20.113c1.1 0 2-.9 2-2v-5.633c-.454.216-.96.34-1.495.34h-8.484ZM26.477 8.898h-4.8a3.809 3.809 0 0 0-3.754-3.204h-3.846a3.81 3.81 0 0 0-3.755 3.204h-4.8c-1.146 0-2.083.9-2.083 2v4.616a2 2 0 0 0 2 2h8.39a2.171 2.171 0 0 1 .666-1.466c.012-.012.026-.02.039-.032.086-.08.176-.154.274-.22.036-.023.075-.039.112-.06.081-.046.161-.095.248-.13.069-.03.143-.046.215-.067.062-.019.121-.043.186-.056a2.155 2.155 0 0 1 .862 0c.064.013.123.037.185.056.073.021.146.038.215.067.087.036.166.084.247.13.038.022.078.038.113.061.099.065.188.14.274.22.013.01.027.02.04.032.39.374.637.89.666 1.466h8.39a2 2 0 0 0 2-2V10.9c0-1.101-.938-2.001-2.084-2.001Zm-14.229 0a1.93 1.93 0 0 1 1.829-1.332h3.846a1.93 1.93 0 0 1 1.829 1.332h-7.504Z" fill="#F0145A"/>
  </symbol>

  <!-- about us -->
  <symbol id="star" viewBox="0 0 32 32">
    <path d="M16.097 3.553c-6.845 0-12.413 5.568-12.413 12.413 0 6.845 5.568 12.414 12.413 12.414 6.845 0 12.413-5.569 12.413-12.414S22.942 3.553 16.097 3.553Zm6.858 11.506-3.593 2.6 1.384 4.23a.669.669 0 0 1-1.027.752l-3.622-2.62-3.621 2.62a.67.67 0 0 1-1.027-.752l1.385-4.23-3.594-2.6a.668.668 0 0 1 .392-1.21h4.449l1.377-4.211a.67.67 0 0 1 1.28 0l1.377 4.21h4.449a.669.669 0 0 1 .392 1.21Z" fill="#F0145A"/>
  </symbol>

  <!-- header -->
  <symbol id="facebookhd" viewBox="0 0 24 25">
    <g clip-path="url(#a)">
      <path d="M24 12.573C24 5.905 18.627.5 12 .5S0 5.905 0 12.573C0 18.6 4.388 23.594 10.125 24.5v-8.437H7.078v-3.49h3.047v-2.66c0-3.025 1.791-4.697 4.533-4.697 1.313 0 2.686.236 2.686.236v2.971H15.83c-1.491 0-1.956.93-1.956 1.886v2.264h3.328l-.532 3.49h-2.796V24.5C19.612 23.594 24 18.6 24 12.573Z" fill="currentColor"/>
    </g>
    <defs>
      <clipPath id="a">
        <path fill="#B3B3BA" transform="translate(0 .5)" d="M0 0h24v24H0z"/>
      </clipPath>
    </defs>
  </symbol>

  <!-- footer -->
  <symbol id="facebookft" viewBox="0 0 38 38">
    <path d="M38 19.116C38 8.56 29.493 0 19 0S0 8.559 0 19.116C0 28.657 6.948 36.566 16.031 38V24.642h-4.824v-5.526h4.824v-4.211c0-4.791 2.837-7.438 7.177-7.438 2.079 0 4.253.374 4.253.374v4.704h-2.396c-2.36 0-3.096 1.473-3.096 2.985v3.586h5.27l-.843 5.526h-4.427V38C31.052 36.566 38 28.657 38 19.116Z" fill="currentColor"/>
  </symbol>

  <!-- team -->
  <symbol id="circle-arrow" viewBox="0 0 32 32">
        <path d="m1.5 15.5 7-7-7-7" stroke="#24A3FF" stroke-width="2" fill="none"/>
    </symbol>
    

    

  <!-- home -->
 <symbol id="homearow" viewBox="0 0 20 12">
  <path d="m1 1 9 9 9-9" stroke="#fff" stroke-width="2" fill="none"/>
</symbol>

<!-- services -->
  <symbol id="servarow" viewBox="0 0 8 11">
    <path d="M1.5 1 6 5.5 1.5 10" stroke="#24A3FF" stroke-width="2" fill="none"/>
  </symbol> 

<!-- burger -->
  <symbol id="burger" viewBox="0 0 32 32">
    <path d="m7 7 18 18M25 7 7 25" stroke="#EC6F5D" stroke-width="2"/>
  </symbol> 

  
</svg>